PathFileType	4	(X/Y/Z)	OpenSim_Sub02_EMGStiffKnee_Accel.trc
DataRate	CameraRate	NumFrames	NumMarkers	Units	OrigDataRate	OrigDataStartFrame	OrigNumFrames
100	100	38	8	m	100	5918	7890
Frame#	Time	torso_imu_offset_imu	pelvis_imu_offset_imu	tibia_r_imu_offset_imu	femur_r_imu_offset_imu	tibia_l_imu_offset_imu	femur_l_imu_offset_imu	toes_r_imu_offset_imu	toes_l_imu_offset_imu
				X1	Y1	Z1	X2	Y2	Z2	X3	Y3	Z3	X4	Y4	Z4	X5	Y5	Z5	X6	Y6	Z6	X7	Y7	Z7	X8		Y8	Z8	

5918	59.17000000	11.66945641	-1.50821197	3.55631442	9.25876270	-3.46666864	7.14741581	3.38492818	5.11120548	-1.30393008	2.77126856	3.34785343	5.58782462	11.37600491	-4.89632648	3.79191147	10.97052072	-2.10478559	2.02861139	8.03567117	-3.33161542	7.80813620	17.19108941	3.81180942	14.95001026
5919	59.18000000	11.46574794	-1.98298632	3.30352366	8.18001900	-1.51672391	6.83992222	5.33031227	4.93188327	2.32720631	4.13453519	3.26667663	0.48188039	9.84696542	-7.00187128	6.86382245	10.91927413	-1.56037764	1.97261969	5.71317051	1.57533088	8.64996360	15.40372583	4.69912254	13.25405067
5920	59.19000000	11.03997148	-2.32226540	3.41485945	7.22019860	0.51011051	6.48431355	7.69350023	11.13525589	-1.31071569	7.42956042	2.38995343	-3.71668757	7.61302811	-9.50657749	7.25342469	10.38646069	-2.03852283	2.52298652	5.82579055	1.62350370	8.73128399	10.54851015	5.95709401	17.40664917
5921	59.20000000	10.60217634	-2.39156941	3.63112293	6.94759885	2.32652743	6.37201592	12.79137143	12.16742814	1.80302976	11.70498846	0.58925473	-4.68192657	5.25233976	-10.40011103	5.01933221	9.48594904	-3.80483610	2.35763483	5.80785273	-0.09794588	8.54549851	2.48450440	13.94599806	24.56648303
5922	59.21000000	10.43349113	-2.19361183	3.81888185	7.61735642	3.45833121	6.12724651	15.45225054	4.52874089	5.25370215	14.19824985	-2.22292971	-3.95600159	3.86877171	-10.73213681	1.85204410	9.55850801	-6.26835249	1.43067532	5.05336119	1.63816361	9.01605406	1.35813910	12.19948116	23.97569565
5923	59.22000000	10.56546013	-1.98083620	3.97919118	8.52765602	3.89486677	6.00387835	13.38137564	-0.60982929	2.57232999	15.51350842	-4.70172040	-2.38939705	2.56403010	-10.47842739	-0.46117373	11.03066693	-7.87423157	0.27781359	4.21089004	2.25976028	9.59340733	-0.13173451	4.52326162	17.79987280
5924	59.23000000	10.78735021	-1.82490006	4.11735225	9.14951763	3.83057568	6.02980981	10.88471996	0.61397691	1.50888590	17.06062275	-5.13276356	-0.51223470	1.00789802	-9.39882927	-0.91307157	12.04799612	-8.20656305	-0.55617909	4.71004928	1.15753261	9.42469965	-4.03601812	1.43086759	12.44009950
5925	59.24000000	10.75424156	-1.58112857	4.24227822	9.22298101	3.31296938	6.13731792	9.35952077	1.64294508	2.56289481	15.33653754	-5.24775386	0.05445117	0.12386121	-8.15834265	0.51016912	11.30960442	-7.52414252	-0.62532754	4.94688196	0.55793862	9.29212143	-1.45171960	0.94966564	12.71007348
5926	59.25000000	10.33836088	-1.16121356	4.32901229	8.78990698	2.49251854	6.20851343	9.49424016	1.80385406	1.64942677	11.54721900	-5.49635705	-0.33244856	0.47225532	-6.47896547	2.19489730	9.65637881	-6.43764611	-0.23676516	4.48254839	0.83111200	9.43654296	-1.63384101	1.87819441	11.93988521
5927	59.26000000	9.72730375	-0.71436646	4.41267377	8.42744547	1.38369469	6.30748995	10.64019855	2.26394110	1.42111742	8.76632047	-4.46604378	-0.00373793	1.30455329	-4.81463573	3.07171288	8.36951347	-5.20705032	-0.20479942	4.93672792	0.81833150	9.03296512	-1.37668254	3.44029304	11.87098761
5928	59.27000000	9.17468609	-0.38731663	4.44220461	8.23927805	0.27452740	6.19359863	11.19145085	2.48390814	1.20205638	7.16188604	-2.76107699	1.06624245	1.70945279	-4.36532807	3.27883748	7.89655225	-3.90134812	-0.39471249	4.50339378	0.64550843	9.04657404	-1.95327853	3.41490583	10.87601377
5929	59.28000000	8.89667916	-0.29660578	4.40518398	7.99949537	-0.81000187	5.88080483	10.22192397	1.92382183	1.25733742	6.31863148	-1.81019050	1.34407969	2.06239937	-5.17414003	3.27592693	7.78182363	-3.13512456	-0.31692985	4.73310891	0.29939119	8.86313914	-1.99292656	3.01410250	10.20360110
5930	59.29000000	8.81367487	-0.51609046	4.39308555	7.49593820	-1.51436478	5.60720727	9.08131835	1.65926185	1.32496316	6.02669691	-1.41373089	0.89874659	2.74752311	-5.40156189	3.82091662	7.84092621	-3.02929776	-0.12571932	5.26893800	0.37565654	8.52624176	-1.00681478	3.45258543	10.21454220
5931	59.30000000	8.74320134	-0.89611954	4.33935918	6.99978656	-1.57974772	5.33501630	8.42876363	1.39169706	1.26956674	6.28911324	-1.10635793	0.57666222	3.54481848	-3.94907310	5.28709438	8.18781515	-3.17742345	0.17877609	5.02505053	0.26838793	8.49434749	0.20784149	4.10612282	10.20476243
5932	59.31000000	8.53116563	-1.17592770	4.30035998	6.57991406	-1.18164965	5.13417492	8.35374838	0.72128951	1.00576146	6.92396974	-0.88890758	0.48040735	3.92815233	-1.32841681	6.71379994	8.69937989	-3.46685474	0.55239108	5.27320955	0.11308061	8.39904226	1.43968634	4.42888175	9.87121686
5933	59.32000000	8.28336007	-1.38147230	4.27582164	6.27335710	-0.38147072	4.95624874	8.94355399	0.41922372	0.53416792	7.77020362	-0.98986223	0.54317118	3.66674031	1.40751657	7.47972015	9.06752856	-3.89073626	0.92093071	5.46264388	-0.09918658	8.20852174	2.58056398	4.78039163	9.80151057
5934	59.33000000	8.03178354	-1.56883524	4.22620626	6.20063704	0.51683144	4.78677486	9.54652329	0.62467558	0.58143258	8.73119234	-1.37529800	0.66206220	3.41944858	2.83346177	7.16107580	8.97410826	-4.27838984	1.21492139	5.40516958	-0.29943380	8.15192155	3.46769548	4.70293839	10.06374862
5935	59.34000000	7.79447842	-1.63103432	4.37959462	6.28838264	1.22461674	4.76438675	9.76053334	0.98019314	0.63131006	9.60779643	-1.60287044	0.70270731	3.84061497	2.22840725	5.51901601	8.45519951	-4.50193490	1.28870271	5.40283717	-0.15799739	8.27165790	3.94286985	4.22591215	10.46559237
5936	59.35000000	7.58466178	-1.58056536	4.45664892	6.54191734	1.59610074	4.84523952	9.63260992	1.15592190	0.95339919	9.94148149	-1.63953543	0.57344463	5.07142277	0.54927379	3.38617848	7.76550294	-4.20012083	1.03054440	5.53240379	-0.12725711	8.17613026	4.64161451	4.00034558	11.09474478
5937	59.36000000	7.44156630	-1.51692840	4.41370075	6.83493411	1.73332984	4.90471638	9.29063978	1.11622266	1.27391331	9.56336316	-1.69670774	0.44813757	7.03626551	-0.89839303	2.24350194	7.31438528	-3.78463008	0.52630029	5.37717232	0.16475189	8.33391008	5.48700769	4.18508309	11.76788882
5938	59.37000000	7.35873793	-1.36352325	4.46788977	7.02265388	1.78396465	4.90262674	9.16927203	0.84882287	1.53687981	8.99775979	-1.78000667	0.43933141	9.19161178	-1.96946532	2.42184011	7.33858648	-3.55084740	-0.07834713	5.73461941	0.31231070	8.17578969	6.28208831	3.81541548	12.11194348
5939	59.38000000	7.39518726	-1.19682264	4.53020180	7.10377158	1.82890463	4.85063091	9.31543362	0.54850205	1.68528354	8.55372677	-1.86286166	0.24484746	10.35297907	-2.79851567	3.04644194	7.58738642	-2.66563386	-0.69248115	5.93271602	0.35493078	7.98958282	6.99382064	3.05167208	12.32369246
5940	59.39000000	7.53834126	-1.16068336	4.54606247	7.07932058	1.84715419	4.74800073	9.45931565	0.20533164	1.41413226	8.22461481	-1.90358227	0.23593842	10.02393680	-3.54949299	3.38335552	7.80839850	-2.03052810	-0.82744164	5.44563961	0.42197781	8.28595279	7.24332945	2.40581088	12.36835796
5941	59.40000000	7.57088946	-1.16078566	4.49346637	7.10371907	1.88143117	4.62035332	9.61916420	-0.31276778	1.33595882	8.15489904	-1.84559115	0.70174352	9.14130614	-4.24166411	2.93819343	7.99139154	-1.57401804	-0.49653446	5.41250335	0.24306592	8.22935757	6.91053658	1.87339216	12.29249952
5942	59.41000000	7.63972656	-1.12362477	4.55974082	7.21056508	1.92154259	4.60941543	9.65447715	-0.54642740	1.12589956	8.37617944	-1.62239360	1.16760687	8.80089324	-4.43272425	2.02155949	8.22162217	-1.50694855	-0.00796538	5.24049953	-0.10465027	8.31456202	6.62004863	1.46179539	12.48458253
5943	59.42000000	7.84127268	-1.05781649	4.67768826	7.44110484	2.00905171	4.59862315	9.54984814	0.06985976	0.90731055	8.72761202	-1.39397767	1.12325906	9.31199864	-4.35212902	1.26783547	8.42095421	-1.65934050	0.31155815	5.47625242	-0.11747496	8.32535651	6.99319665	0.65617861	13.03443452
5944	59.43000000	8.24319600	-1.05019556	4.73278118	7.60568864	2.14794300	4.64001614	9.40937546	1.16952725	0.85906063	9.05839378	-1.42805108	0.70873379	10.20045979	-4.58124369	0.99613713	8.53390449	-1.80074594	0.41375663	5.72238175	0.20438908	8.27378706	7.83278091	0.07247998	13.63666917
5945	59.44000000	8.71433210	-1.12092929	4.86279526	7.60017979	2.31440736	4.62293229	9.15001950	2.30420132	0.97557454	9.21877714	-1.81123292	0.41926526	10.63500974	-5.41640914	1.52421206	8.48361718	-1.60691119	0.27439250	5.72663899	0.18334249	8.20709960	8.83619171	0.03205380	14.47316240
5946	59.45000000	8.97252391	-1.15115094	4.93375021	7.54163457	2.35836316	4.52352483	8.95546441	3.11339810	1.42087173	9.27513713	-2.11537860	0.07327042	10.53727554	-7.04391732	1.87294929	8.34534363	-1.34412775	0.13455635	5.82475583	0.33679211	8.16624277	9.85868060	-0.66268507	14.76530477
5947	59.46000000	8.97106612	-1.20850779	4.93842989	7.54610192	2.20723798	4.41431502	8.92498558	3.56841759	1.59316417	9.15178494	-2.09594006	-0.12990793	10.36319929	-7.77551648	1.16262428	8.28065841	-1.14817476	-0.13842164	6.23171510	0.55212100	7.96620004	10.66013705	-1.48670222	13.70760076
5948	59.47000000	8.83683278	-1.29817525	4.93383669	7.63395166	2.04164848	4.24354635	9.00196939	3.90487905	1.47980047	9.15109416	-1.78683562	-0.01559359	9.99539331	-6.69416529	1.15066971	8.16853781	-0.91389277	-0.30498914	6.25395820	0.60816000	7.94055639	10.33265134	0.74371731	13.45209382
5949	59.48000000	8.83314584	-1.42077219	4.88467626	7.88543015	1.89735761	4.11273522	9.05040527	3.73937576	1.54106935	9.22801329	-1.48682667	0.14465337	9.75415370	-5.91701585	1.63263892	8.12226766	-0.52081189	-0.23544974	5.80238263	0.41960614	8.22645611	11.86069576	1.63048682	10.21267297
5950	59.49000000	8.95510290	-1.60294911	4.96501426	8.13376580	1.66187486	4.13024746	9.14003959	2.93211532	1.29582516	9.05095450	-1.31576312	0.32228841	10.03336321	-5.34443917	0.68197094	8.41972951	-0.07299928	-0.35315189	5.92661310	0.24588706	8.23178141	15.62595043	-5.68857043	5.34648860
5951	59.50000000	9.16836615	-1.67698898	5.07214025	8.23728153	1.41188272	4.04871400	9.52716469	1.89964211	0.91021531	8.81524563	-1.43420965	0.64706387	10.81101029	-4.38730326	0.18097606	8.57820394	0.34642453	-0.70052489	5.82713277	0.03346383	8.40120132	16.63156078	-8.37946807	5.72545505
5952	59.51000000	9.25984820	-1.59838471	5.10288171	8.30898204	1.18269684	3.86485697	10.13824690	0.68636014	0.99985095	8.76165047	-2.05085665	0.87241920	11.63408458	-4.79919219	1.21235641	8.49628944	0.27299726	-0.65233813	5.96664149	-0.17274264	8.38713664	15.23521821	-5.91210219	4.17702187
5953	59.52000000	8.99000381	-1.53898220	5.12163075	8.05517660	0.94105944	3.75768111	10.64252186	-0.50658671	1.26756648	8.71549116	-2.79763603	1.14789105	11.19815222	-5.55695788	2.70366392	8.50204104	-0.10020024	-0.67850053	6.02443955	-0.06876014	8.33931611	15.26443533	-6.50284130	2.78198527
5954	59.53000000	8.44888454	-1.50806645	5.16903558	7.75846063	0.79970456	3.81020047	10.97604528	-1.29385193	1.56089162	8.53888145	-3.25497939	1.75805559	9.98122130	-4.40894175	4.41433491	8.44663698	-0.20133633	-0.68438658	5.47489780	-0.15748354	8.66375745	18.50133355	-4.50941897	3.04207598
5955	59.54000000	7.94262231	-1.42887735	5.26831545	7.58301089	0.85498038	3.89525025	11.35336367	-1.87570449	1.96149360	8.46694395	-3.54896537	2.33089370	9.74957337	-2.37854665	5.97660525	8.51808100	-0.36688990	-0.51361712	5.10463831	-0.21326928	9.21559382	23.30710325	-3.82083180	2.23800387
